# xmcd
#
# Track frame offsets:
#	150
#	14250
#	35078
#	53068
#	70627
#	90427
#	107892
#	125095
#	141140
#	154311
#	174542
#	192204
#
# Disc length: 2918 seconds
#
# Revision: 1
# Processed by: cddbd v1.5.2PL0 Copyright (c) Steve Scherf et al.
# Submitted via: audiograbber 1.83.01
#
DISCID=a20b640c
DTITLE=Jan Jakob - Story That My Grandma Told
DYEAR=2015
DGENRE=
TTITLE0=Back Home
TTITLE1=Beifahrersitz
TTITLE2=Feels Like Shit
TTITLE3=Creationist
TTITLE4=I Made A Promise
TTITLE5=Drown It In Your Blood
TTITLE6=Frogsong
TTITLE7=Death
TTITLE8=Sold My Life
TTITLE9=Great Mountains
TTITLE10=Early In The Morning
TTITLE11=Fall Asleep
EXTD=
EXTT0=
EXTT1=
EXTT2=
EXTT3=
EXTT4=
EXTT5=
EXTT6=
EXTT7=
EXTT8=
EXTT9=
EXTT10=
EXTT11=
PLAYORDER=
